<?xml version="1.0" standalone="no"?>
<!DOCTYPE svg PUBLIC "-//W3C//DTD SVG 20010904//EN"
 "http://www.w3.org/TR/2001/REC-SVG-20010904/DTD/svg10.dtd">
<svg version="1.0" xmlns="http://www.w3.org/2000/svg"
 width="200.000000pt" height="200.000000pt" viewBox="0 0 200.000000 200.000000"
 preserveAspectRatio="xMidYMid meet">
<metadata>
Created by potrace 1.13, written by Peter Selinger 2001-2015
</metadata>
<g transform="translate(0.000000,200.000000) scale(0.100000,-0.100000)"
fill="#000000" stroke="none">
<path d="M0 1005 l0 -995 1000 0 1000 0 0 995 0 995 -1000 0 -1000 0 0 -995z
m1312 786 l-4 -49 74 -42 c113 -66 211 -145 316 -256 97 -100 216 -257 204
-268 -10 -11 -145 -6 -277 9 -146 18 -364 52 -388 61 -12 4 -18 -2 -22 -20 -3
-14 -7 -37 -10 -51 -4 -20 -1 -25 15 -25 11 0 20 -6 20 -13 0 -7 -15 -98 -34
-202 -37 -203 -47 -226 -108 -259 l-36 -20 -25 29 -25 30 28 16 c27 17 60 56
60 71 0 5 -6 8 -12 8 -11 0 -170 271 -164 277 2 2 24 9 50 17 l48 15 47 -100
48 -99 13 106 c10 89 15 107 31 111 19 5 23 14 34 75 5 33 3 38 -17 43 -13 2
-81 16 -153 31 -234 46 -467 112 -482 137 -10 16 104 116 188 164 119 68 408
153 520 153 31 0 34 3 44 63 9 54 21 46 17 -12z m-680 -638 c33 -30 17 -84
-29 -98 -17 -4 -29 1 -48 19 -30 30 -31 36 -4 70 23 30 54 33 81 9z m203 -35
c5 -34 9 -38 35 -38 27 0 30 -3 30 -30 0 -23 -5 -31 -24 -36 l-23 -5 14 -67
c21 -104 21 -105 53 -100 28 4 39 -10 40 -47 0 -30 -127 -46 -153 -20 -9 8
-23 60 -33 115 -12 64 -23 100 -31 100 -17 0 -29 50 -14 60 7 4 11 23 9 44 -3
37 -1 39 42 55 25 9 46 15 47 12 1 -4 4 -23 8 -43z m-348 -16 c10 -6 10 -17
-3 -48 -15 -38 -17 -39 -55 -36 -29 3 -46 -1 -61 -14 -18 -17 -20 -28 -16 -90
6 -96 30 -138 80 -142 23 -2 47 4 63 14 26 17 27 16 52 -9 14 -14 23 -32 20
-40 -10 -26 -90 -57 -146 -57 -106 0 -169 67 -186 196 -18 131 70 232 200 233
22 1 46 -3 52 -7z m197 -200 c31 -165 31 -172 7 -172 -10 0 -32 -3 -48 -6
l-29 -6 -22 124 c-13 68 -26 135 -28 149 -5 22 -1 27 28 36 65 21 63 25 92
-125z m1150 -172 c35 -184 43 -210 66 -210 10 0 20 -8 24 -17 3 -10 9 -23 12
-30 3 -7 -15 -16 -50 -24 -75 -16 -100 0 -115 73 -23 114 -61 331 -59 333 16
10 84 31 89 26 4 -3 19 -71 33 -151z m-205 -35 c28 -14 55 -58 71 -117 10 -34
-2 -41 -85 -52 -28 -4 -57 -11 -63 -15 -18 -11 -4 -40 23 -47 22 -5 78 16 90
35 3 5 17 -2 31 -16 30 -30 23 -42 -40 -72 -50 -25 -115 -27 -155 -6 -62 31
-96 180 -56 241 38 58 124 81 184 49z m-243 -47 c-3 -13 -15 -84 -27 -160 -19
-121 -24 -137 -43 -142 -53 -14 -59 -9 -136 121 -41 70 -76 132 -78 138 -2 7
10 15 25 18 15 4 37 9 49 12 18 6 26 -5 60 -77 l39 -83 2 50 c6 113 12 133 41
138 67 10 75 8 68 -15z m-800 -52 c8 -46 2 -52 -52 -61 -43 -6 -45 -8 -39 -32
12 -48 56 -295 53 -298 -2 -1 -25 -7 -51 -13 -35 -7 -49 -7 -52 2 -1 6 -15 78
-30 161 -14 82 -27 151 -29 152 -1 1 -21 -3 -45 -8 -24 -5 -45 -8 -47 -6 -2 1
-6 21 -10 44 l-6 40 98 18 c55 9 115 21 134 25 63 14 69 12 76 -24z m463 -13
c16 -13 25 -40 36 -102 8 -46 21 -94 29 -107 14 -20 13 -25 -6 -51 -12 -15
-23 -30 -25 -32 -1 -2 -9 2 -18 9 -12 10 -23 8 -60 -10 -82 -40 -155 -2 -155
80 0 31 7 44 34 68 19 17 49 33 66 37 25 5 31 11 28 28 -4 27 -40 26 -80 -3
-34 -25 -33 -26 -58 10 l-21 29 53 30 c63 37 142 42 177 14z m-249 -27 c0 -35
-13 -74 -24 -70 -6 2 -20 -2 -30 -9 -18 -13 -18 -17 1 -121 11 -59 17 -108 14
-110 -3 -2 -26 -7 -51 -11 l-45 -7 -19 109 c-10 59 -24 125 -31 146 -13 37
-12 39 11 48 57 21 74 22 74 4 0 -15 5 -13 25 9 26 28 75 36 75 12z"/>
<path d="M1158 1710 c-140 -40 -271 -116 -362 -209 -56 -57 -58 -54 59 -66
l60 -5 43 54 c56 72 156 162 234 209 69 41 63 44 -34 17z"/>
<path d="M1243 1663 c-38 -60 -82 -153 -103 -217 -15 -48 -13 -50 88 -66 42
-7 81 -14 88 -17 26 -10 22 220 -7 315 -6 23 -16 42 -21 42 -4 0 -25 -26 -45
-57z"/>
<path d="M1347 1688 c58 -65 129 -195 169 -307 l22 -66 69 -17 c98 -25 96 -26
67 40 -52 118 -147 235 -262 322 -71 53 -99 65 -65 28z"/>
<path d="M570 1431 c0 -5 18 -16 39 -24 78 -32 585 -147 595 -136 2 2 6 24 8
48 l3 45 -65 13 c-108 22 -439 63 -512 63 -37 0 -68 -4 -68 -9z"/>
<path d="M1235 1335 c-16 -79 -22 -71 58 -84 297 -49 536 -75 571 -61 19 7 16
10 -24 28 -59 27 -542 142 -595 142 -3 0 -7 -11 -10 -25z"/>
<path d="M1532 628 c-7 -7 -12 -20 -12 -30 0 -19 18 -22 57 -12 19 5 20 9 11
30 -12 26 -37 31 -56 12z"/>
<path d="M966 407 c-24 -18 -17 -51 12 -55 19 -3 22 1 22 32 0 39 -6 43 -34
23z"/>
</g>
</svg>
