<?xml version="1.0" encoding="UTF-8" standalone="no"?>
<!-- Created with Inkscape (http://www.inkscape.org/) -->

<svg
   xmlns="http://www.w3.org/2000/svg"
  version="1.1"
   id="svg7221"
   width="200"
   height="200"
   viewBox="0 0 200 200"

  >

  <defs
     id="defs7225" />

  <path
     style="fill:#000000"
     d="m 33.291091,177.58223 c -0.57874,-0.72573 -2.0482,-7.16952 -3.26546,-14.31952 -3.0893,-18.14597 -2.46044,-16.81438 -7.57838,-16.0469 -3.69114,0.55352 -4.49691,0.35428 -5.40127,-1.33552 -0.58461,-1.09235 -1.06293,-3.37682 -1.06293,-5.07659 0,-3.80998 0.35401,-3.94947 17.83706,-7.02847 14.71863,-2.59214 15.11732,-2.49903 15.14763,3.53748 0.0178,3.53714 -1.5292,5.44361 -4.43469,5.46531 -5.04053,0.0377 -5.12899,0.75687 -2.09965,17.07201 2.72568,14.67977 2.76208,15.28418 0.99812,16.57402 -1.0069,0.73626 -2.53222,1.3448 -3.3896,1.35231 -0.85737,0.008 -2.4903,0.2638 -3.62872,0.56953 -1.14288,0.30692 -2.54111,-0.0351 -3.12211,-0.76366 z m 21.289,-4.94147 c -0.60239,-1.89324 -5.59704,-27.65815 -5.59704,-28.87234 0,-1.36708 7.12808,-4.20548 9.20033,-3.66358 0.93869,0.24548 2.51514,-0.16677 3.5032,-0.9161 2.46839,-1.87199 7.00579,-1.76787 8.09915,0.18586 0.79947,1.42857 1.34915,1.31601 4.83349,-0.98982 4.21054,-2.7864 11.76686,-4.65001 15.75954,-3.88676 4.31733,0.82531 6.46288,4.29829 8.150066,13.19243 0.86981,4.58526 2.280363,9.40347 3.134553,10.70714 1.45696,2.22359 1.38521,2.59041 -1.15912,5.9262 -2.271493,2.97808 -3.153629,3.45893 -5.428799,2.95922 -1.60438,-0.35238 -3.91942,0.0306 -5.6545,0.93536 -5.71082,2.978 -12.39117,1.46918 -14.89001,-3.36304 -3.53588,-6.83764 -0.81808,-13.89297 6.21774,-16.14103 4.84302,-1.54743 6.15089,-2.76711 4.23614,-3.95049 -1.00373,-0.62034 -2.55128,-0.28443 -4.7988,1.04164 -4.20508,2.48106 -5.04508,2.45423 -7.92709,-0.25328 l -2.35301,-2.21054 -0.56162,2.14764 c -0.31092,1.18893 -1.8561,2.59889 -3.46144,3.15852 -3.3916,1.18232 -3.37654,0.97701 -0.92555,12.61492 2.21988,10.54053 1.83105,11.42947 -5.35345,12.23927 -3.3653,0.37932 -4.70197,0.15018 -5.02378,-0.86122 z m 33.40296,-14.87805 c 0,-1.11111 -0.66667,-2 -1.5,-2 -0.83333,0 -1.5,0.88889 -1.5,2 0,1.11111 0.66667,2 1.5,2 0.83333,0 1.5,-0.88889 1.5,-2 z m 25.281839,3.75 c -2.19755,-2.85235 -15.281843,-25.73329 -15.281843,-26.72389 0,-1.13459 3.689843,-2.80809 8.179613,-3.70979 2.4524,-0.49253 2.95966,0.001 5.9823,5.82276 l 3.30268,6.36092 0.5177,-6.20078 c 0.28474,-3.41043 1.07405,-6.75676 1.75401,-7.4363 0.67997,-0.67954 3.37997,-1.26419 6,-1.29922 5.60635,-0.075 5.38055,-1.7322 2.42463,17.79586 -1.15385,7.62276 -2.61718,14.48526 -3.25186,15.25 -1.43581,1.73005 -8.32511,1.83054 -9.62723,0.14044 z m 23.27725,-6.83227 c -3.99971,-3.51178 -5.54711,-7.95002 -5.54978,-15.91773 -0.003,-9.74523 5.36491,-15 15.32371,-15 2.99877,0 5.2752,0.69059 7.15775,2.1714 4.88354,3.84139 8.35806,14.56793 5.32585,16.44194 -0.65086,0.40225 -4.13836,1.21631 -7.75,1.80901 -6.48247,1.06384 -7.71228,2.13702 -4.65724,4.06408 1.13702,0.71722 2.81549,0.30783 6.14999,-1.5 l 4.58617,-2.48643 2.43052,2.80959 c 1.87822,2.17115 2.20639,3.22839 1.44418,4.65259 -1.66828,3.11721 -9.06976,6.03782 -15.30117,6.03782 -4.88475,0 -6.12467,-0.41722 -9.15998,-3.08227 z m 9.99476,-19.00486 c 0.36954,-0.59793 0.19017,-1.56885 -0.3986,-2.15762 -1.2479,-1.2479 -4.49423,0.88726 -3.58522,2.35806 0.76113,1.23154 3.17383,1.11015 3.98382,-0.20044 z m 22.68469,16.48034 c -0.6938,-0.31213 -1.71559,-1.41606 -2.27063,-2.45317 -1.42247,-2.65791 -8.18444,-37.93338 -7.5756,-39.51999 0.61956,-1.61455 7.91168,-3.90111 9.94851,-3.11951 1.53191,0.58785 2.02859,2.56703 5.70221,22.72229 1.95538,10.7282 2.30216,11.63874 5.02859,13.20349 2.20932,1.26798 2.92838,2.41423 2.92838,4.66815 0,1.64312 -0.46157,3.27276 -1.02571,3.62142 -1.43991,0.88992 -11.21153,1.56305 -12.73575,0.87732 z M 92.432181,128.30275 c -3.21239,-3.21239 -3.09271,-5.15587 0.42969,-6.97737 3.53399,-1.8275 4.617656,-4.32623 2.80044,-6.45729 -0.75292,-0.88296 -4.44937,-7.2099 -8.21433,-14.05988 -6.36414,-11.578938 -6.89801,-12.257678 -7.59411,-9.654878 -0.4118,1.53979 -1.53116,3.37175 -2.48746,4.07101 -1.60636,1.1746 -1.63004,1.79545 -0.31105,8.154878 1.26828,6.11491 1.70683,6.9221 3.92769,7.22931 3.42988,0.47444 5,1.96636 5,4.75094 0,3.17103 -4.51433,5.40324 -10.92729,5.40324 -6.32618,0 -7.45347,-1.51467 -9.6175,-12.92253 -0.92078,-4.854 -2.47474,-9.537448 -3.72607,-11.229958 -1.87264,-2.53288 -1.99633,-3.30128 -0.96939,-6.02197 0.64743,-1.71524 0.92399,-3.52826 0.61456,-4.02892 -1.4282,-2.31087 0.70946,-5.50415 4.52831,-6.76448 5.09923,-1.6829 6.69613,-0.98453 7.49581,3.27815 0.54094,2.88343 1.14994,3.5432 3.60289,3.90321 1.62356,0.23829 3.42103,-0.0358 3.99437,-0.60919 1.78753,-1.78753 9.29563,-3.60743 10.55854,-2.5593 0.63199,0.5245 2.60284,4.10763 4.37966,7.9625 1.776826,3.85488 3.577096,6.79471 4.000606,6.53297 0.423513,-0.26174 1.043063,-3.75292 1.376783,-7.75819 0.48073,-5.76952 1.05012,-7.64287 2.741,-9.01809 1.26637,-1.02997 2.35042,-3.34763 2.66588,-5.6996 0.47713,-3.55727 0.28809,-4.0185 -1.84325,-4.49719 -1.3062,-0.29337 -10.699909,-2.37925 -20.874909,-4.6353 -20.34805,-4.51167 -36.51374,-9.12485 -39.41838,-11.24877 -3.10007,-2.26683 -1.26403,-6.03934 5.67799,-11.66658 13.80446,-11.18997 37.43774,-20.30463 58.627669,-22.61096 6.26695,-0.6821 6.41582,-0.76783 7.90169,-4.5505 0.83293,-2.12041 2.12115,-3.8553 2.86272,-3.8553 1.38696,0 1.53585,0.46141 1.73302,5.3705 0.1003,2.49738 1.25038,3.55676 8.84777,8.14996 16.46576,9.95481 29.80923,22.38598 43.24549,40.28876 6.39294,8.51811 7.6182,11.39528 5.42894,12.74831 -3.00512,1.85727 -24.64226,-0.0322 -53.24504,-4.64958 -10.68536,-1.72496 -13.08029,-1.85491 -13.78198,-0.74785 -1.40494,2.21659 -1.0202,5.8399 0.62011,5.8399 2.14405,0 1.93739,2.83077 -1.63249,22.361898 -4.01143,21.94691 -5.27459,24.56118 -13.351063,27.63185 -2.204816,0.83827 -3.004846,0.60876 -5.067316,-1.45371 z M 171.42976,74.809422 c -1.9127,-1.9127 -48.6459,-13.04671 -54.76147,-13.04671 -2.48037,0 -3.68524,1.61967 -3.68524,4.95398 0,2.04467 -0.6827,1.8943 27.5,6.05733 19.62011,2.8982 32.66767,3.75636 30.94671,2.0354 z m -62.63335,-11.29671 c -0.29989,-3.11028 -0.57131,-3.30275 -6.31336,-4.47709 -10.607969,-2.16948 -44.720329,-6.38141 -48.926779,-6.04109 l -4.07322,0.32954 2.81359,1.21875 c 6.77709,2.93559 45.862396,11.8531 52.999769,12.09216 3.72166,0.12466 3.80582,0.0496 3.5,-3.12227 z m 46.86586,0.39608 c -0.99173,-4.95865 -7.66637,-15.12652 -14.99265,-22.83919 -6.37814,-6.71452 -13.87016,-13.15361 -12.51199,-10.75356 0.29464,0.52067 2.3768,4.09667 4.62701,7.94667 2.25021,3.85 5.50932,10.6 7.24246,15 3.75035,9.52121 4.23399,10.09726 9.9937,11.90316 6.21775,1.94952 6.28001,1.93565 5.64147,-1.25708 z m -34.93888,-18.89608 c -0.28881,-7.0125 -1.09369,-14.28746 -1.78862,-16.16659 l -1.26351,-3.41658 -1.98619,2.41658 c -2.71035,3.29768 -10.5429,19.66638 -11.31727,23.65119 -0.44657,2.29796 -0.23132,3.35274 0.74333,3.64257 2.53359,0.75343 11.3486,2.34609 13.75465,2.48513 l 2.38273,0.1377 z m -32.878429,-2.5 c 4.93949,-5.0875 10.805616,-10.6 13.035849,-12.25 8.11375,-6.00283 3.96229,-5.39455 -10.397759,1.52349 -10.13918,4.88461 -23.5,14.80359 -23.5,17.44624 0,1.00665 1.54326,1.53371 5.25,1.79303 2.8875,0.202 5.56073,0.45052 5.94051,0.55226 0.37979,0.10174 4.73192,-3.97752 9.6714,-9.06502 z m -65.5526,84.784068 c -6.22091,-2.70551 -11.32085,-13.00727 -11.30373,-22.83329 0.0208,-11.941538 9.02457,-20.700778 21.27866,-20.700778 6.68689,0 8.13723,2.13107 5.74051,8.4349 -0.84536,2.22347 -1.56835,2.5651 -5.42857,2.5651 -5.49619,0 -7.60444,1.89934 -7.57173,6.821428 0.0353,5.31941 1.83986,12.37115 3.68843,14.4138 2.02322,2.23563 5.65296,2.25245 9.39236,0.0435 2.89216,-1.70844 2.93785,-1.69722 6.14372,1.50866 3.90905,3.90905 3.28947,5.60504 -3.2742,8.96258 -5.11213,2.61503 -13.63247,2.97294 -18.66545,0.78407 z m 26.71437,-4.97179 c -0.56302,-1.48086 -1.02333,-3.45068 -1.0229,-4.37738 4.3e-4,-0.92669 -0.97526,-6.58559 -2.16821,-12.57532 -2.13208,-10.705098 -2.13643,-10.914218 -0.25565,-12.289478 1.64767,-1.20481 1.70574,-1.53031 0.41821,-2.34427 -0.82232,-0.51986 -1.77803,-0.95209 -2.12381,-0.96052 -0.34577,-0.008 -1.19974,-1.39397 -1.8977,-3.079 -1.11678,-2.69616 -1.02945,-3.38594 0.72802,-5.75 2.75092,-3.70038 8.44535,-4.24225 10.70335,-1.0185 1.88537,2.69174 2.08194,6.94526 0.39876,8.62844 -0.92834,0.92834 -0.82782,1.47705 0.44883,2.45 2.22888,1.69867 7.62443,30.276748 6.01931,31.881868 -0.60388,0.60387 -3.15143,1.32941 -5.66124,1.6123 -4.24073,0.47799 -4.63565,0.32403 -5.58697,-2.17814 z"
     id="path7231"
      />
</svg>
