<?xml version="1.0" standalone="no"?>
<svg opacity="0.9" version="1.0" xmlns="http://www.w3.org/2000/svg"
 width="200.000000pt" height="200.000000pt" viewBox="0 0 200.000000 200.000000"
 preserveAspectRatio="xMidYMid meet">
<metadata>
Created by potrace 1.15, written by Peter Selinger 2001-2017
</metadata>
<g opacity="1" transform="translate(0.000000,200.000000) scale(0.100000,-0.100000)"
fill="#000000" stroke="none">
<path d="M0 1005 l0 -995 1000 0 1000 0 0 995 0 995 -1000 0 -1000 0 0 -995z
m1390 689 c177 -102 344 -261 484 -462 31 -44 34 -53 20 -59 -28 -11 -242 6
-419 32 -93 14 -189 28 -211 32 -45 6 -43 7 -58 -59 -5 -23 -3 -28 14 -28 26
0 26 2 -10 -203 -34 -191 -49 -231 -99 -264 -44 -30 -53 -29 -79 6 l-21 29 35
21 c38 23 61 64 38 69 -7 2 -35 45 -62 95 -28 51 -62 113 -77 140 -15 26 -25
47 -23 47 1 0 24 7 51 15 l47 14 48 -96 48 -96 12 98 c14 106 16 115 37 115
14 0 19 12 29 72 l7 36 -58 12 c-310 62 -583 136 -599 162 -10 15 96 112 170
157 119 71 339 140 503 157 45 5 64 11 67 23 2 9 8 32 13 51 8 34 8 34 11 -18
l3 -52 79 -46z m-555 -574 c6 -36 10 -40 36 -40 26 0 29 -3 29 -31 0 -23 -5
-32 -21 -36 -19 -5 -20 -11 -14 -52 13 -95 24 -123 48 -119 31 3 47 -9 47 -37
0 -27 -40 -45 -101 -45 -60 0 -73 24 -94 173 -5 31 -14 51 -26 58 -20 10 -26
54 -9 64 6 4 8 21 4 41 -6 31 -4 35 27 49 55 23 66 20 74 -25z m-348 -18 c9
-6 9 -17 -1 -47 -13 -38 -15 -39 -54 -36 -52 3 -82 -24 -82 -74 0 -56 20 -131
41 -154 23 -25 80 -28 99 -6 18 21 33 19 60 -9 29 -32 22 -48 -35 -76 -37 -18
-59 -21 -108 -18 -77 5 -108 25 -142 94 -84 168 -4 331 165 333 25 0 50 -3 57
-7z m181 -109 c20 -97 45 -253 41 -257 -2 -2 -25 -6 -50 -10 l-46 -7 -21 113
c-39 209 -39 186 -1 197 62 17 67 15 77 -36z m1173 -285 c30 -151 37 -174 56
-183 29 -12 49 -55 31 -66 -23 -14 -101 -22 -117 -12 -9 5 -21 21 -28 34 -10
21 -73 337 -73 366 0 10 50 30 81 32 13 1 23 -31 50 -171z m-210 -14 c30 -15
59 -65 73 -126 5 -23 2 -27 -22 -32 -120 -23 -142 -28 -142 -33 0 -14 34 -43
50 -43 10 0 33 11 52 24 l35 23 22 -24 c20 -19 21 -26 10 -39 -42 -51 -157
-70 -215 -35 -63 38 -90 169 -50 237 35 58 124 81 187 48z m-245 -51 c-3 -16
-15 -86 -27 -158 -12 -72 -27 -133 -33 -137 -6 -4 -25 -8 -41 -8 -28 0 -36 9
-108 129 -42 71 -77 134 -77 139 0 5 21 15 47 21 53 14 48 18 90 -76 15 -34
31 -63 36 -63 4 0 7 33 7 73 0 82 5 93 40 100 63 11 72 9 66 -20z m-800 -37
c11 -45 1 -60 -44 -70 -51 -11 -51 -5 -16 -189 15 -76 24 -140 22 -142 -3 -3
-26 -9 -52 -14 -34 -6 -48 -5 -51 3 -2 6 -15 76 -30 155 -14 80 -28 148 -31
152 -2 4 -23 3 -45 -2 -23 -6 -44 -8 -46 -5 -3 2 -7 22 -10 44 l-5 39 128 25
c169 33 172 33 180 4z m469 -26 c8 -9 23 -55 31 -101 9 -46 22 -93 29 -105 11
-18 10 -25 -7 -52 -22 -36 -22 -36 -47 -22 -13 7 -29 4 -57 -10 -55 -28 -90
-26 -125 9 -59 60 -29 145 60 172 29 9 41 17 39 28 -5 25 -47 25 -80 1 l-30
-22 -24 23 c-13 12 -24 26 -24 30 0 5 21 20 46 35 74 44 157 50 189 14z m-255
-32 c0 -47 -12 -68 -36 -68 -14 0 -27 -6 -30 -14 -3 -7 4 -58 14 -112 11 -54
17 -102 13 -106 -3 -3 -26 -9 -51 -13 l-45 -6 -26 133 c-15 73 -28 139 -30
147 -5 18 82 52 88 33 4 -9 12 -7 30 8 36 28 73 27 73 -2z"/>
<path d="M1150 1707 c-137 -41 -270 -119 -359 -211 -43 -44 -43 -45 -20 -50
55 -11 149 -16 149 -8 0 22 168 186 238 233 107 71 107 70 -8 36z"/>
<path d="M1240 1653 c-42 -65 -90 -171 -103 -225 -8 -30 -14 -28 98 -48 33 -6
68 -14 78 -16 15 -5 17 5 17 106 0 109 -23 250 -40 250 -4 0 -27 -30 -50 -67z"/>
<path d="M1380 1645 c53 -70 107 -174 138 -270 l20 -60 69 -17 c37 -10 71 -18
76 -18 28 -1 -42 136 -120 233 -48 60 -205 197 -225 197 -4 0 15 -29 42 -65z"/>
<path d="M570 1431 c0 -15 70 -38 242 -80 225 -55 379 -84 388 -74 5 4 10 26
12 47 l3 39 -70 14 c-236 45 -575 77 -575 54z"/>
<path d="M1232 1318 c-5 -24 -6 -46 -3 -50 12 -14 371 -66 561 -82 58 -5 103
5 82 18 -26 16 -133 48 -271 80 -119 29 -343 76 -356 76 -2 0 -8 -19 -13 -42z"/>
</g>
</svg>
